<svg width="24" height="24" viewBox="0 0 24 24" fill="none" xmlns="http://www.w3.org/2000/svg">
    <path
        d="M18 22C17.8448 22.0004 17.6917 21.9644 17.553 21.895L12 19.118L6.44697 21.9C6.26991 21.9898 6.07013 22.0248 5.87308 22.0007C5.67603 21.9766 5.49062 21.8943 5.34047 21.7644C5.19032 21.6346 5.08223 21.4629 5.02996 21.2714C4.9777 21.0799 4.98362 20.8771 5.04697 20.689L6.82597 15.351L2.37497 11.781C2.21688 11.6555 2.10047 11.4851 2.04104 11.2922C1.9816 11.0993 1.98194 10.893 2.04199 10.7003C2.10204 10.5076 2.219 10.3375 2.37749 10.2126C2.53598 10.0876 2.72858 10.0135 2.92997 10L8.98597 9.572L11.057 3.666C11.126 3.47113 11.2538 3.30245 11.4227 3.18318C11.5915 3.06391 11.7932 2.99991 12 3C12.2068 2.99998 12.4086 3.06413 12.5775 3.18358C12.7464 3.30304 12.8741 3.47194 12.943 3.667L15.028 9.575L21.07 10C21.2717 10.0144 21.4643 10.0895 21.6224 10.2156C21.7805 10.3416 21.8967 10.5127 21.9556 10.7061C22.0145 10.8995 22.0134 11.1063 21.9524 11.2991C21.8914 11.4919 21.7734 11.6616 21.614 11.786L17.06 15.331L18.943 20.667C18.9962 20.8178 19.0125 20.9792 18.9905 21.1377C18.9685 21.2961 18.9088 21.4469 18.8164 21.5775C18.724 21.7081 18.6017 21.8146 18.4596 21.8881C18.3176 21.9617 18.1599 22 18 22ZM5.62297 11.817L8.62297 14.217C8.7831 14.3451 8.89998 14.5194 8.95775 14.7161C9.01553 14.9129 9.01142 15.1227 8.94597 15.317L7.70997 19.027L11.551 17.106C11.6898 17.0366 11.8428 17.0005 11.998 17.0005C12.1531 17.0005 12.3062 17.0366 12.445 17.106L16.233 19L14.933 15.318C14.8632 15.1201 14.8574 14.9053 14.9164 14.7039C14.9754 14.5025 15.0963 14.3249 15.262 14.196L18.324 11.814L14.232 11.524C14.0376 11.5104 13.8514 11.4403 13.6963 11.3224C13.5412 11.2044 13.424 11.0437 13.359 10.86L12 7.014L10.653 10.857C10.5883 11.0411 10.4712 11.2022 10.3161 11.3205C10.1609 11.4389 9.97459 11.5093 9.77997 11.523L5.62297 11.817Z"
        fill="#F86338" />
</svg>